<svg width="157" height="60" viewBox="0 0 157 60" fill="none" xmlns="http://www.w3.org/2000/svg">
<path d="M147.159 55.71C145.619 55.71 144.229 55.37 142.989 54.69C141.769 53.99 140.809 53.03 140.109 51.81C139.409 50.59 139.059 49.15 139.059 47.49C139.059 45.83 139.409 44.39 140.109 43.17C140.809 41.95 141.769 41 142.989 40.32C144.229 39.64 145.619 39.3 147.159 39.3C148.499 39.3 149.699 39.6 150.759 40.2C151.819 40.78 152.659 41.67 153.279 42.87C153.899 44.07 154.209 45.61 154.209 47.49C154.209 49.35 153.909 50.89 153.309 52.11C152.709 53.31 151.879 54.21 150.819 54.81C149.759 55.41 148.539 55.71 147.159 55.71ZM147.609 52.5C148.509 52.5 149.309 52.3 150.009 51.9C150.729 51.5 151.299 50.92 151.719 50.16C152.159 49.4 152.379 48.51 152.379 47.49C152.379 46.45 152.159 45.56 151.719 44.82C151.299 44.06 150.729 43.48 150.009 43.08C149.309 42.68 148.509 42.48 147.609 42.48C146.709 42.48 145.899 42.68 145.179 43.08C144.479 43.48 143.909 44.06 143.469 44.82C143.049 45.56 142.839 46.45 142.839 47.49C142.839 48.51 143.049 49.4 143.469 50.16C143.909 50.92 144.479 51.5 145.179 51.9C145.899 52.3 146.709 52.5 147.609 52.5ZM152.469 55.5V51.72L152.619 47.46L152.319 43.2V33.24H156.039V55.5H152.469Z" fill="#D9E0FF"/>
<path d="M129.246 55.71C127.466 55.71 125.906 55.36 124.566 54.66C123.246 53.94 122.216 52.9601 121.476 51.7201C120.756 50.4801 120.396 49.07 120.396 47.49C120.396 45.89 120.746 44.48 121.446 43.26C122.166 42.02 123.146 41.05 124.386 40.35C125.646 39.65 127.076 39.3 128.676 39.3C130.236 39.3 131.626 39.64 132.846 40.32C134.066 41 135.026 41.96 135.726 43.2C136.426 44.44 136.776 45.9 136.776 47.58C136.776 47.74 136.766 47.9201 136.746 48.1201C136.746 48.32 136.736 48.51 136.716 48.69H123.366V46.2H134.736L133.266 46.98C133.286 46.06 133.096 45.25 132.696 44.55C132.296 43.85 131.746 43.3 131.046 42.9C130.366 42.5 129.576 42.3 128.676 42.3C127.756 42.3 126.946 42.5 126.246 42.9C125.566 43.3 125.026 43.86 124.626 44.58C124.246 45.28 124.056 46.11 124.056 47.07V47.6701C124.056 48.6301 124.276 49.48 124.716 50.22C125.156 50.96 125.776 51.53 126.576 51.93C127.376 52.33 128.296 52.53 129.336 52.53C130.236 52.53 131.046 52.39 131.766 52.11C132.486 51.83 133.126 51.39 133.686 50.79L135.696 53.1C134.976 53.94 134.066 54.59 132.966 55.05C131.886 55.49 130.646 55.71 129.246 55.71Z" fill="#D9E0FF"/>
<path d="M115.558 55.71C113.798 55.71 112.438 55.26 111.478 54.36C110.518 53.44 110.038 52.09 110.038 50.31V35.94H113.788V50.22C113.788 50.98 113.978 51.57 114.358 51.99C114.758 52.41 115.308 52.62 116.008 52.62C116.848 52.62 117.548 52.4 118.108 51.96L119.158 54.63C118.718 54.99 118.178 55.26 117.538 55.44C116.898 55.62 116.238 55.71 115.558 55.71ZM107.398 42.6V39.6H118.078V42.6H107.398Z" fill="#D9E0FF"/>
<path d="M100.857 55.5V39.48H104.607V55.5H100.857ZM102.747 36.84C102.047 36.84 101.467 36.62 101.007 36.18C100.567 35.74 100.347 35.21 100.347 34.59C100.347 33.95 100.567 33.42 101.007 33C101.467 32.56 102.047 32.34 102.747 32.34C103.447 32.34 104.017 32.55 104.457 32.97C104.917 33.37 105.147 33.88 105.147 34.5C105.147 35.16 104.927 35.72 104.487 36.18C104.047 36.62 103.467 36.84 102.747 36.84Z" fill="#D9E0FF"/>
<path d="M89.1399 55.8C87.5399 55.8 86.0499 55.54 84.6699 55.02C83.3099 54.48 82.1199 53.73 81.0999 52.77C80.0999 51.79 79.3199 50.64 78.7599 49.32C78.1999 48 77.9199 46.56 77.9199 45C77.9199 43.44 78.1999 42 78.7599 40.68C79.3199 39.36 80.1099 38.22 81.1299 37.26C82.1499 36.28 83.3399 35.53 84.6999 35.01C86.0599 34.47 87.5499 34.2 89.1699 34.2C90.8899 34.2 92.4599 34.5 93.8799 35.1C95.2999 35.68 96.4999 36.55 97.4799 37.71L94.9599 40.08C94.1999 39.26 93.3499 38.65 92.4099 38.25C91.4699 37.83 90.4499 37.62 89.3499 37.62C88.2499 37.62 87.2399 37.8 86.3199 38.16C85.4199 38.52 84.6299 39.03 83.9499 39.69C83.2899 40.35 82.7699 41.13 82.3899 42.03C82.0299 42.93 81.8499 43.92 81.8499 45C81.8499 46.08 82.0299 47.07 82.3899 47.97C82.7699 48.87 83.2899 49.65 83.9499 50.31C84.6299 50.97 85.4199 51.48 86.3199 51.84C87.2399 52.2 88.2499 52.38 89.3499 52.38C90.4499 52.38 91.4699 52.18 92.4099 51.78C93.3499 51.36 94.1999 50.73 94.9599 49.89L97.4799 52.29C96.4999 53.43 95.2999 54.3 93.8799 54.9C92.4599 55.5 90.8799 55.8 89.1399 55.8Z" fill="#D9E0FF"/>
<path d="M128.096 25.71C126.456 25.71 124.996 25.36 123.716 24.66C122.436 23.94 121.426 22.96 120.686 21.72C119.946 20.48 119.576 19.07 119.576 17.49C119.576 15.89 119.946 14.48 120.686 13.26C121.426 12.02 122.436 11.05 123.716 10.35C124.996 9.65005 126.456 9.30005 128.096 9.30005C129.756 9.30005 131.226 9.65005 132.506 10.35C133.806 11.05 134.816 12.01 135.536 13.23C136.276 14.45 136.646 15.87 136.646 17.49C136.646 19.07 136.276 20.48 135.536 21.72C134.816 22.96 133.806 23.94 132.506 24.66C131.226 25.36 129.756 25.71 128.096 25.71ZM128.096 22.5C129.016 22.5 129.836 22.3 130.556 21.9C131.276 21.5 131.836 20.92 132.236 20.16C132.656 19.4 132.866 18.51 132.866 17.49C132.866 16.45 132.656 15.56 132.236 14.82C131.836 14.06 131.276 13.48 130.556 13.08C129.836 12.68 129.026 12.48 128.126 12.48C127.206 12.48 126.386 12.68 125.666 13.08C124.966 13.48 124.406 14.06 123.986 14.82C123.566 15.56 123.356 16.45 123.356 17.49C123.356 18.51 123.566 19.4 123.986 20.16C124.406 20.92 124.966 21.5 125.666 21.9C126.386 22.3 127.196 22.5 128.096 22.5Z" fill="#D9E0FF"/>
<path d="M109.764 25.71C107.984 25.71 106.424 25.36 105.084 24.66C103.764 23.94 102.734 22.96 101.994 21.72C101.274 20.48 100.914 19.07 100.914 17.49C100.914 15.89 101.264 14.48 101.964 13.26C102.684 12.02 103.664 11.05 104.904 10.35C106.164 9.65005 107.594 9.30005 109.194 9.30005C110.754 9.30005 112.144 9.64005 113.364 10.32C114.584 11 115.544 11.96 116.244 13.2C116.944 14.44 117.294 15.9 117.294 17.58C117.294 17.74 117.284 17.92 117.264 18.12C117.264 18.32 117.254 18.51 117.234 18.69H103.884V16.2H115.254L113.784 16.98C113.804 16.06 113.614 15.25 113.214 14.55C112.814 13.85 112.264 13.3 111.564 12.9C110.884 12.5 110.094 12.3 109.194 12.3C108.274 12.3 107.464 12.5 106.764 12.9C106.084 13.3 105.544 13.86 105.144 14.58C104.764 15.28 104.574 16.11 104.574 17.07V17.67C104.574 18.63 104.794 19.48 105.234 20.22C105.674 20.96 106.294 21.53 107.094 21.93C107.894 22.33 108.814 22.53 109.854 22.53C110.754 22.53 111.564 22.39 112.284 22.11C113.004 21.83 113.644 21.39 114.204 20.79L116.214 23.1C115.494 23.94 114.584 24.59 113.484 25.05C112.404 25.49 111.164 25.71 109.764 25.71Z" fill="#D9E0FF"/>
<path d="M89.2299 25.8C87.5899 25.8 86.0799 25.54 84.6999 25.02C83.3399 24.48 82.1499 23.73 81.1299 22.77C80.1099 21.79 79.3199 20.64 78.7599 19.32C78.1999 18 77.9199 16.56 77.9199 15C77.9199 13.44 78.1999 12 78.7599 10.68C79.3199 9.36004 80.1099 8.22004 81.1299 7.26004C82.1699 6.28004 83.3799 5.53004 84.7599 5.01004C86.1399 4.47004 87.6499 4.20004 89.2899 4.20004C91.0699 4.20004 92.6699 4.49004 94.0899 5.07004C95.5299 5.65004 96.7399 6.50004 97.7199 7.62004L95.2599 10.02C94.4399 9.20004 93.5499 8.60004 92.5899 8.22004C91.6499 7.82004 90.6099 7.62004 89.4699 7.62004C88.3699 7.62004 87.3499 7.80004 86.4099 8.16004C85.4699 8.52004 84.6599 9.03004 83.9799 9.69004C83.2999 10.35 82.7699 11.13 82.3899 12.03C82.0299 12.93 81.8499 13.92 81.8499 15C81.8499 16.06 82.0299 17.04 82.3899 17.94C82.7699 18.84 83.2999 19.63 83.9799 20.31C84.6599 20.97 85.4599 21.48 86.3799 21.84C87.2999 22.2 88.3199 22.38 89.4399 22.38C90.4799 22.38 91.4799 22.22 92.4399 21.9C93.4199 21.56 94.3499 21 95.2299 20.22L97.4499 23.13C96.3499 24.01 95.0699 24.68 93.6099 25.14C92.1699 25.58 90.7099 25.8 89.2299 25.8ZM93.7599 22.62V14.76H97.4499V23.13L93.7599 22.62Z" fill="#D9E0FF"/>
<path d="M4.4668 0C6.31817 0.000123111 7.90684 1.12648 8.58398 2.73145H63.4492C64.1432 1.16531 65.7099 0.0723387 67.5332 0.0722656C70 0.0722655 72 2.07227 72 4.53906C71.9998 6.35365 70.9165 7.91344 69.3623 8.6123V35.5918C70.917 36.2906 71.9999 37.852 72 39.667C72 42.1338 70 44.1338 67.5332 44.1338C65.713 44.1337 64.1479 43.0443 63.4521 41.4824H43.7617L32.084 53.5381C32.3844 54.1386 32.5546 54.816 32.5547 55.5332C32.5547 58 30.5546 59.9999 28.0879 60C25.6211 60 23.6211 58 23.6211 55.5332C23.6212 53.0665 25.6212 51.0674 28.0879 51.0674C28.5201 51.0674 28.9377 51.1296 29.333 51.2441L42.3047 37.8516H63.4521C63.9198 36.802 64.7801 35.9667 65.8467 35.5312V8.67383C64.783 8.2395 63.9245 7.40796 63.4561 6.3623H8.51074C8.03578 7.37379 7.193 8.17716 6.1543 8.60156V35.5312C6.46224 35.657 6.75241 35.8168 7.02148 36.0049L17.8984 29.5205C17.8751 29.3356 17.8633 29.1472 17.8633 28.9561C17.8633 26.4894 19.8625 24.4895 22.3291 24.4893C24.7959 24.4893 26.7959 26.4893 26.7959 28.9561C26.7959 31.4228 24.7959 33.4229 22.3291 33.4229C21.3706 33.4228 20.4834 33.1195 19.7559 32.6055L8.89355 39.0811C8.9187 39.2729 8.93261 39.4683 8.93262 39.667C8.93262 42.1337 6.93345 44.1336 4.4668 44.1338C2.00001 44.1338 1.07827e-07 42.1338 0 39.667C7.30644e-05 37.852 1.08299 36.2905 2.6377 35.5918V8.54102C1.08319 7.84221 0.000111986 6.28162 0 4.4668C-1.07827e-07 2.00001 2.00001 1.07827e-07 4.4668 0Z" fill="white"/>
</svg>
