<svg width="138" height="138" viewBox="0 0 138 138" fill="none" xmlns="http://www.w3.org/2000/svg">
<rect width="138" height="138" rx="69" fill="url(#paint0_linear_2266_2198)"/>
<path d="M25.2285 30C27.8157 30 30.0347 31.5776 30.9756 33.8232H107.081C108.051 31.6451 110.233 30.1261 112.771 30.126C116.211 30.126 119 32.9147 119 36.3545C119 38.8792 117.496 41.0506 115.337 42.0283V79.8584C117.497 80.8361 119 83.0091 119 85.5342C119 88.9739 116.211 91.7627 112.771 91.7627C110.237 91.7626 108.058 90.2477 107.086 88.0752H79.7793L63.5635 104.951C63.9946 105.798 64.2392 106.756 64.2393 107.771C64.2393 111.211 61.4505 114 58.0107 114C54.5711 114 51.7832 111.211 51.7832 107.771C51.7833 104.332 54.5712 101.544 58.0107 101.544C58.5984 101.544 59.167 101.626 59.7061 101.778L77.7568 82.9922H107.086C107.744 81.5225 108.954 80.3548 110.453 79.7529V42.1338C108.958 41.5334 107.75 40.3715 107.091 38.9072H30.8525C30.1819 40.3126 28.9994 41.4247 27.5469 42.0078V79.7529C27.9766 79.9254 28.3826 80.144 28.7588 80.4033L43.8379 71.3418C43.804 71.0786 43.7852 70.8105 43.7852 70.5381C43.7852 67.0984 46.5731 64.3097 50.0127 64.3096C53.4525 64.3096 56.2412 67.0983 56.2412 70.5381C56.2412 73.9778 53.4524 76.7666 50.0127 76.7666C48.6862 76.7665 47.4574 76.3504 46.4473 75.6436L31.3975 84.6865C31.4352 84.9638 31.457 85.2466 31.457 85.5342C31.457 88.9739 28.6683 91.7627 25.2285 91.7627C21.7889 91.7625 19.001 88.9738 19.001 85.5342C19.001 83.0093 20.5034 80.8362 22.6631 79.8584V41.9023C20.5039 40.9244 19.0011 38.7531 19.001 36.2285C19.001 32.7888 21.7889 30.0001 25.2285 30Z" fill="white"/>
<defs>
<linearGradient id="paint0_linear_2266_2198" x1="0" y1="0" x2="165.815" y2="56.8017" gradientUnits="userSpaceOnUse">
<stop stop-color="#0B18B0"/>
<stop offset="0.5" stop-color="#060B52"/>
<stop offset="1" stop-color="#0B18B0"/>
</linearGradient>
</defs>
</svg>
