<svg width="450" height="201" viewBox="0 0 450 201" fill="none" xmlns="http://www.w3.org/2000/svg">
<g clip-path="url(#clip0_185_348)">
<path d="M105.827 141.229V173.784H95.499V93.4092H122.89C129.85 93.4092 135.761 95.7302 140.626 100.369C145.566 105.01 148.035 110.66 148.035 117.32C148.035 124.131 145.566 129.819 140.626 134.383C135.836 138.949 129.924 141.23 122.89 141.23L105.827 141.229ZM105.827 103.286V131.35H123.114C127.229 131.35 130.635 129.966 133.33 127.196C136.097 124.429 137.483 121.134 137.483 117.318C137.483 113.577 136.098 110.321 133.33 107.552C130.636 104.709 127.229 103.286 123.114 103.286H105.827Z" fill="white"/>
<path d="M175.65 116.982C183.284 116.982 189.308 119.022 193.724 123.099C198.139 127.179 200.347 132.773 200.347 139.881V173.783H190.468V166.15H190.019C185.753 172.436 180.065 175.579 172.956 175.579C166.894 175.579 161.823 173.783 157.745 170.191C153.665 166.599 151.627 162.108 151.627 156.72C151.627 151.034 153.777 146.504 158.082 143.137C162.385 139.769 168.129 138.085 175.314 138.085C181.45 138.085 186.501 139.208 190.468 141.453V139.095C190.468 135.504 189.046 132.454 186.203 129.947C183.358 127.44 180.028 126.186 176.212 126.186C170.448 126.186 165.884 128.619 162.517 133.483L153.424 127.758C158.437 120.574 165.846 116.982 175.65 116.982ZM162.292 156.945C162.292 159.639 163.431 161.885 165.716 163.68C167.998 165.477 170.672 166.374 173.742 166.374C178.081 166.374 181.954 164.766 185.36 161.547C188.765 158.33 190.467 154.55 190.467 150.208C187.248 147.665 182.758 146.391 176.996 146.391C172.804 146.391 169.306 147.402 166.501 149.422C163.695 151.444 162.292 153.953 162.292 156.945Z" fill="white"/>
<path d="M212.02 118.778H221.899V127.758H222.348C225.416 120.725 231.74 117.206 241.32 117.206L243.453 117.43V128.207L238.85 127.758C234.06 127.758 230.112 129.236 227.007 132.193C223.901 135.15 222.348 138.91 222.348 143.474V173.783H212.02V118.778ZM276.456 174.681C271.966 174.681 268.242 173.297 265.287 170.528C262.329 167.76 260.814 163.905 260.74 158.965V128.207H251.086V118.777H260.74V101.938H271.068V118.777H284.539V128.207H271.068V155.598C271.068 159.265 271.778 161.754 273.201 163.063C274.621 164.374 276.232 165.027 278.028 165.027C278.851 165.027 279.656 164.934 280.442 164.746C281.228 164.56 281.957 164.317 282.631 164.017L285.887 173.222C283.191 174.194 280.048 174.681 276.456 174.681Z" fill="white"/>
<path d="M294.975 118.778H304.854V126.411H305.302C306.874 123.717 309.287 121.472 312.543 119.676C315.798 117.88 319.184 116.982 322.702 116.982C329.437 116.982 334.619 118.909 338.249 122.763C341.878 126.618 343.694 132.1 343.694 139.209V173.783H333.366V139.881C333.142 130.901 328.612 126.41 319.783 126.41C315.667 126.41 312.223 128.076 309.455 131.406C306.686 134.737 305.301 138.722 305.301 143.361V173.783H294.973V118.778H294.975Z" fill="white"/>
<path d="M380.515 175.579C372.432 175.579 365.77 172.812 360.533 167.272C355.294 161.734 352.675 154.738 352.675 146.28C352.675 137.899 355.218 130.921 360.308 125.344C365.397 119.77 371.907 116.982 379.841 116.982C387.997 116.982 394.49 119.62 399.317 124.896C404.144 130.172 406.558 137.564 406.558 147.066L406.445 148.189H363.226C363.376 153.577 365.171 157.918 368.615 161.21C372.056 164.504 376.173 166.15 380.963 166.15C387.548 166.15 392.712 162.858 396.455 156.271L405.66 160.762C403.191 165.403 399.767 169.031 395.389 171.65C391.01 174.269 386.051 175.579 380.515 175.579ZM364.012 139.657H395.557C395.257 135.84 393.705 132.68 390.898 130.172C388.091 127.665 384.331 126.411 379.616 126.411C375.725 126.411 372.376 127.61 369.569 130.003C366.763 132.4 364.911 135.616 364.012 139.657Z" fill="white"/>
<path d="M426.314 173.783H415.986V118.777H425.865V127.757H426.314C427.361 124.838 429.513 122.352 432.769 120.292C436.025 118.235 439.224 117.205 442.367 117.205C445.36 117.205 447.905 117.654 450 118.552L446.857 128.542C445.584 128.02 443.563 127.756 440.795 127.756C436.903 127.756 433.516 129.327 430.636 132.47C427.754 135.614 426.314 139.281 426.314 143.471V173.783Z" fill="white"/>
<path d="M118.899 46.4399V53.4509H135.677C135.135 57.8759 133.298 61.3189 130.168 63.7809C127.12 66.2029 123.364 67.4119 118.898 67.4119C113.723 67.4119 109.361 65.5959 105.814 61.9649C102.266 58.3769 100.493 53.9729 100.493 48.7559C100.493 43.5399 102.266 39.1369 105.814 35.5469C109.361 31.9159 113.723 30.0999 118.898 30.0999C123.739 30.0999 127.955 31.7699 131.545 35.1089L136.49 30.1629C131.523 25.4479 125.66 23.0889 118.898 23.0889C114.307 23.0889 109.966 24.2579 105.876 26.5949C101.827 28.8909 98.634 32.0409 96.298 36.0489C94.001 39.9719 92.854 44.2079 92.854 48.7569C92.854 53.3489 94.001 57.6059 96.298 61.5289C98.593 65.4939 101.786 68.6249 105.876 70.9189C109.966 73.2569 114.307 74.4249 118.898 74.4249C125.826 74.4249 131.565 72.2549 136.115 67.9139C140.623 63.6149 142.876 57.9189 142.876 50.8219C142.876 49.1529 142.751 47.6919 142.501 46.4399H118.899Z" fill="white"/>
<path d="M161.971 41.3682C157.254 41.3682 153.31 42.9552 150.138 46.1262C146.966 49.2562 145.38 53.1802 145.38 57.8962C145.38 62.5292 146.986 66.4522 150.2 69.6662C153.372 72.8392 157.296 74.4252 161.971 74.4252C166.644 74.4252 170.568 72.8392 173.741 69.6662C176.954 66.4532 178.561 62.5292 178.561 57.8962C178.561 53.1812 176.954 49.2572 173.741 46.1262C170.568 42.9552 166.645 41.3682 161.971 41.3682ZM168.545 65.0332C166.75 66.9532 164.559 67.9132 161.972 67.9132C159.342 67.9132 157.13 66.9532 155.335 65.0332C153.54 63.1142 152.643 60.7352 152.643 57.8962C152.643 54.9752 153.54 52.5962 155.335 50.7592C157.13 48.8402 159.342 47.8802 161.972 47.8802C164.601 47.8802 166.812 48.8412 168.608 50.7592C170.402 52.5962 171.3 54.9752 171.3 57.8962C171.299 60.6922 170.381 63.0722 168.545 65.0332Z" fill="white"/>
<path d="M261.701 24.8398H254.439V73.4218H261.701V24.8398Z" fill="white"/>
<path d="M198.156 41.3682C193.44 41.3682 189.495 42.9552 186.324 46.1262C183.151 49.2562 181.566 53.1802 181.566 57.8962C181.566 62.5292 183.172 66.4522 186.386 69.6662C189.558 72.8392 193.481 74.4252 198.156 74.4252C202.83 74.4252 206.754 72.8392 209.926 69.6662C213.14 66.4532 214.747 62.5292 214.747 57.8962C214.747 53.1812 213.14 49.2572 209.926 46.1262C206.754 42.9552 202.831 41.3682 198.156 41.3682ZM204.73 65.0332C202.935 66.9532 200.744 67.9132 198.157 67.9132C195.528 67.9132 193.315 66.9532 191.521 65.0332C189.726 63.1142 188.829 60.7352 188.829 57.8962C188.829 54.9752 189.726 52.5962 191.521 50.7592C193.315 48.8402 195.528 47.8802 198.157 47.8802C200.786 47.8802 202.998 48.8412 204.793 50.7592C206.588 52.5962 207.486 54.9752 207.486 57.8962C207.485 60.6922 206.566 63.0722 204.73 65.0332Z" fill="white"/>
<path d="M281.609 67.9132C277.978 67.9132 275.306 66.2432 273.595 62.9042L295.695 53.7642L294.944 51.8862C294.359 50.3422 293.598 48.9232 292.659 47.6282C291.72 46.3352 290.645 45.2182 289.435 44.2792C288.223 43.3392 286.888 42.6202 285.428 42.1192C283.967 41.6182 282.423 41.3682 280.795 41.3682C276.371 41.3682 272.657 42.9332 269.651 46.0632C266.687 49.2362 265.206 53.1802 265.206 57.8952C265.206 62.5702 266.772 66.4942 269.901 69.6652C273.031 72.8382 276.934 74.4242 281.609 74.4242C287.452 74.4242 292.042 71.9822 295.382 67.0992L289.747 63.3432C287.702 66.3902 284.99 67.9132 281.609 67.9132ZM274.91 50.5092C276.746 48.6732 278.792 47.7552 281.046 47.7552C282.464 47.7552 283.738 48.0782 284.865 48.7252C285.991 49.3722 286.763 50.2182 287.181 51.2602L272.406 57.3952C272.322 54.5992 273.158 52.3032 274.91 50.5092Z" fill="white"/>
<path d="M242.543 45.0612H242.293C240.205 42.5992 237.306 41.3682 233.591 41.3682C229.333 41.3682 225.618 42.9952 222.447 46.2512C219.317 49.5062 217.751 53.4102 217.751 57.9582C217.751 62.4662 219.317 66.3472 222.447 69.6032C225.66 72.8172 229.374 74.4242 233.591 74.4242C237.305 74.4242 240.205 73.1722 242.293 70.6682H242.543V72.3582C242.543 79.2862 239.601 82.7502 233.716 82.7502C231.838 82.7502 230.168 82.2082 228.707 81.1232C227.246 80.0372 226.14 78.6192 225.389 76.8652L219.066 79.4942C219.692 80.9552 220.485 82.2802 221.445 83.4702C222.405 84.6602 223.521 85.6822 224.795 86.5382C226.067 87.3932 227.455 88.0602 228.958 88.5412C230.46 89.0202 232.046 89.2602 233.716 89.2602C238.64 89.2602 242.49 87.7672 245.266 84.7842C248.042 81.8002 249.429 77.5532 249.429 72.0442V42.3692H242.542L242.543 45.0612ZM240.477 65.0952C238.765 66.9732 236.679 67.9132 234.217 67.9132C231.628 67.9132 229.437 66.9532 227.644 65.0332C225.891 63.1142 225.014 60.7552 225.014 57.9592C225.014 55.1222 225.911 52.7432 227.707 50.8222C229.543 48.8612 231.714 47.8802 234.218 47.8802C236.721 47.8802 238.808 48.8412 240.478 50.7592C242.189 52.7222 243.045 55.1212 243.045 57.9582C243.044 60.7552 242.188 63.1342 240.477 65.0952Z" fill="white"/>
<path d="M52.681 0H0V200.189H52.681V0Z" fill="white"/>
<path d="M35 169.256H18.2727V163.294C18.2727 161.992 18.5096 160.914 18.9833 160.059C19.457 159.204 20.105 158.565 20.9272 158.14C21.744 157.715 22.6642 157.503 23.6879 157.503C24.717 157.503 25.6426 157.718 26.4648 158.148C27.2816 158.573 27.9296 159.215 28.4087 160.076C28.8825 160.931 29.1193 162.006 29.1193 163.302V167.402H26.9794V163.531C26.9794 162.708 26.8378 162.041 26.5547 161.529C26.2661 161.018 25.8741 160.642 25.3785 160.402C24.883 160.163 24.3195 160.043 23.6879 160.043C23.0562 160.043 22.4954 160.163 22.0053 160.402C21.5153 160.642 21.1314 161.02 20.8537 161.538C20.576 162.049 20.4371 162.725 20.4371 163.563V166.732H35V169.256ZM35 147.544H18.2727V141.582C18.2727 140.286 18.496 139.21 18.9425 138.356C19.389 137.495 20.007 136.853 20.7965 136.428C21.5806 136.003 22.4872 135.791 23.5163 135.791C24.54 135.791 25.4412 136.006 26.2198 136.436C26.993 136.861 27.5947 137.503 28.0249 138.364C28.455 139.219 28.6701 140.294 28.6701 141.59V146.107H26.4975V141.819C26.4975 141.002 26.3804 140.338 26.1463 139.826C25.9122 139.308 25.5718 138.93 25.1254 138.69C24.6789 138.451 24.1425 138.331 23.5163 138.331C22.8847 138.331 22.3375 138.454 21.8746 138.699C21.4118 138.938 21.0579 139.317 20.8129 139.834C20.5624 140.346 20.4371 141.018 20.4371 141.851V145.02H35V147.544ZM27.4531 139.287L35 135.154V138.029L27.4531 142.08V139.287ZM35 125.72H18.2727V115.233H20.4453V123.196H25.5419V115.78H27.7063V123.196H32.8274V115.135H35V125.72ZM18.2727 104.862V101.799L31.2756 96.4734V96.2773L18.2727 90.9521V87.8892H35V90.2905H22.8956V90.4457L34.9755 95.3789V97.3718L22.8874 102.305V102.46H35V104.862H18.2727ZM18.2727 74.6961H35V77.2199H18.2727V74.6961ZM35 64.0207H18.2727V53.5335H20.4453V61.4969H25.5419V54.0807H27.7063V61.4969H32.8274V53.4355H35V64.0207ZM35 43.1623H18.2727V37.1999C18.2727 35.904 18.496 34.8286 18.9425 33.9737C19.389 33.1134 20.007 32.4709 20.7965 32.0462C21.5806 31.6215 22.4872 31.4091 23.5163 31.4091C24.54 31.4091 25.4412 31.6242 26.2198 32.0543C26.993 32.4791 27.5947 33.1216 28.0249 33.9819C28.455 34.8368 28.6701 35.9122 28.6701 37.2081V41.7248H26.4975V37.4368C26.4975 36.62 26.3804 35.9557 26.1463 35.4439C25.9122 34.9266 25.5718 34.5482 25.1254 34.3086C24.6789 34.069 24.1425 33.9492 23.5163 33.9492C22.8847 33.9492 22.3375 34.0717 21.8746 34.3168C21.4118 34.5564 21.0579 34.9348 20.8129 35.4521C20.5624 35.9639 20.4371 36.6364 20.4371 37.4695V40.6385H35V43.1623ZM27.4531 34.9048L35 30.772V33.647L27.4531 37.6982V34.9048Z" fill="black"/>
</g>
<defs>
<clipPath id="clip0_185_348">
<rect width="450" height="201" fill="white"/>
</clipPath>
</defs>
</svg>
