<svg width="468" height="185" viewBox="0 0 468 185" fill="none" xmlns="http://www.w3.org/2000/svg">
<path d="M162.775 152.859C166.875 152.859 170.224 154.257 172.822 157.053C175.419 159.849 176.718 163.792 176.718 168.858C176.718 169.168 176.706 169.635 176.694 170.244H153.827C154.017 173.625 154.971 176.206 156.687 177.998C158.403 179.79 160.536 180.686 163.098 180.686C165.004 180.686 166.625 180.184 167.983 179.181C169.329 178.201 170.391 176.6 171.189 174.401L176.563 175.071C175.717 178.213 174.144 180.663 171.856 182.396C169.568 184.128 166.636 185 163.073 185C158.593 185 155.03 183.614 152.408 180.843C149.775 178.071 148.464 174.187 148.464 169.193C148.464 164.019 149.787 160.004 152.444 157.148C155.101 154.293 158.545 152.859 162.775 152.859ZM315.017 152.871C317.639 152.871 319.76 153.182 321.393 153.803C323.025 154.424 324.229 155.201 325.004 156.133C325.778 157.065 326.314 158.248 326.624 159.682C326.791 160.566 326.886 162.167 326.886 164.484V171.427C326.886 176.266 326.993 179.336 327.22 180.615C327.446 181.893 327.876 183.124 328.531 184.307H323.108C322.572 183.22 322.226 181.953 322.071 180.508C320.153 182.144 318.295 183.304 316.519 183.985C314.744 184.654 312.825 185 310.787 185C307.415 185 304.829 184.176 303.018 182.527C301.207 180.879 300.301 178.763 300.301 176.207C300.301 174.701 300.647 173.327 301.326 172.084C302.005 170.842 302.899 169.838 304.007 169.085C305.116 168.333 306.355 167.758 307.749 167.376C308.773 167.101 310.311 166.839 312.372 166.588C316.566 166.086 319.653 165.489 321.643 164.796C321.667 164.079 321.666 163.624 321.666 163.433C321.666 161.307 321.178 159.813 320.19 158.941C318.867 157.77 316.888 157.172 314.266 157.172C311.824 157.172 310.012 157.602 308.856 158.462C307.689 159.323 306.831 160.841 306.271 163.027L301.195 162.334C301.659 160.159 302.422 158.391 303.471 157.053C304.531 155.715 306.056 154.675 308.058 153.958C310.06 153.229 312.384 152.871 315.017 152.871ZM419.631 152.859C423.73 152.859 427.079 154.257 429.677 157.053C432.275 159.849 433.573 163.792 433.573 168.858C433.573 169.168 433.562 169.635 433.55 170.244H410.682C410.873 173.625 411.827 176.206 413.543 177.998C415.258 179.79 417.391 180.686 419.953 180.686C421.86 180.686 423.48 180.184 424.839 179.181C426.185 178.201 427.258 176.6 428.045 174.401L433.418 175.071C432.572 178.213 430.999 180.663 428.711 182.396C426.423 184.128 423.492 185 419.929 185C415.449 185 411.886 183.614 409.265 180.843C406.643 178.071 405.32 174.187 405.32 169.193C405.32 164.019 406.643 160.004 409.3 157.148C411.957 154.293 415.401 152.859 419.631 152.859ZM66.4563 184.272H61.8213V179.778C59.4381 183.255 56.1969 184.988 52.0859 184.988C50.2746 184.988 48.5824 184.642 47.0215 183.949C45.4486 183.256 44.293 182.383 43.5304 181.331C42.7679 180.28 42.2305 178.99 41.9326 177.461C41.7181 176.433 41.6114 174.82 41.6114 172.598V153.551H46.8073V170.602C46.8073 173.326 46.9141 175.154 47.1285 176.098C47.4503 177.472 48.1537 178.548 49.2022 179.324C50.2627 180.101 51.5734 180.496 53.1343 180.496C54.6953 180.496 56.1608 180.089 57.5192 179.288C58.8894 178.488 59.8555 177.401 60.4156 176.015C60.9875 174.629 61.2616 172.633 61.2616 170.005V153.528H66.4563V184.272ZM84.6763 152.835C87.0831 152.835 89.192 153.181 91.015 153.874C92.8381 154.567 94.1726 155.512 95.0425 156.694C95.9122 157.877 96.5082 159.466 96.83 161.461L91.7539 162.154C91.5275 160.577 90.8603 159.335 89.7524 158.451C88.6441 157.566 87.0826 157.124 85.0568 157.124C82.6737 157.124 80.9695 157.518 79.9447 158.307C78.9202 159.096 78.4203 160.028 78.4203 161.091C78.4204 161.772 78.634 162.37 79.051 162.92C79.4799 163.481 80.1357 163.946 81.0409 164.305C81.5653 164.496 83.0914 164.938 85.6294 165.631C89.3113 166.611 91.8735 167.424 93.3272 168.046C94.7807 168.679 95.9252 169.586 96.7473 170.781C97.5695 171.976 97.9867 173.458 97.9867 175.238C97.9866 176.971 97.4855 178.608 96.4727 180.149C95.4598 181.679 94.0059 182.873 92.0995 183.709C90.193 184.546 88.0363 184.964 85.6294 184.964C81.6494 184.964 78.61 184.139 76.5246 182.478C74.4397 180.842 73.1052 178.38 72.5332 175.119L77.6685 174.306C77.9546 176.373 78.7655 177.951 80.0762 179.05C81.3988 180.149 83.234 180.699 85.6049 180.699C87.9881 180.699 89.7637 180.208 90.9195 179.24C92.0752 178.261 92.6474 177.126 92.6476 175.812C92.6476 174.641 92.1348 173.709 91.122 173.028C90.407 172.562 88.6433 171.976 85.8074 171.259C81.9949 170.291 79.3496 169.455 77.8838 168.75C76.4063 168.045 75.2973 167.065 74.5347 165.823C73.7721 164.58 73.3908 163.206 73.3908 161.7C73.3908 160.327 73.701 159.06 74.3322 157.889C74.9638 156.718 75.8107 155.75 76.883 154.973C77.6933 154.376 78.7893 153.873 80.1833 153.455C81.5775 153.037 83.0796 152.835 84.6763 152.835ZM193.14 152.835C195.547 152.835 197.655 153.181 199.478 153.874C201.302 154.567 202.636 155.512 203.506 156.694C204.376 157.877 204.972 159.466 205.293 161.461L200.217 162.154C199.991 160.577 199.324 159.335 198.216 158.451C197.108 157.566 195.546 157.124 193.52 157.124C191.137 157.124 189.433 157.518 188.408 158.307C187.384 159.096 186.884 160.028 186.884 161.091C186.884 161.772 187.097 162.37 187.514 162.92C187.943 163.481 188.599 163.946 189.504 164.305C190.029 164.496 191.555 164.938 194.093 165.631C197.775 166.611 200.337 167.424 201.791 168.046C203.244 168.679 204.389 169.586 205.211 170.781C206.033 171.976 206.45 173.458 206.45 175.238C206.45 176.971 205.949 178.608 204.936 180.149C203.923 181.679 202.469 182.873 200.563 183.709C198.656 184.546 196.5 184.964 194.093 184.964C190.113 184.964 187.073 184.139 184.988 182.478C182.915 180.842 181.58 178.38 180.997 175.119L186.132 174.306C186.418 176.373 187.229 177.951 188.54 179.05C189.862 180.149 191.697 180.699 194.068 180.699C196.452 180.699 198.227 180.208 199.383 179.24C200.539 178.261 201.111 177.126 201.111 175.812C201.111 174.641 200.598 173.709 199.585 173.028C198.87 172.562 197.107 171.976 194.271 171.259C190.458 170.291 187.813 169.455 186.347 168.75C184.87 168.045 183.761 167.065 182.998 165.823C182.236 164.58 181.854 163.206 181.854 161.7C181.854 160.327 182.164 159.06 182.796 157.889C183.427 156.718 184.274 155.75 185.346 154.973C186.157 154.376 187.253 153.873 188.647 153.455C190.041 153.037 191.543 152.835 193.14 152.835ZM222.702 152.835C225.109 152.835 227.218 153.181 229.041 153.874C230.864 154.567 232.199 155.512 233.068 156.694C233.938 157.877 234.534 159.466 234.856 161.461L229.78 162.154C229.553 160.577 228.886 159.335 227.778 158.451C226.67 157.566 225.109 157.124 223.083 157.124C220.7 157.124 218.995 157.518 217.971 158.307C216.946 159.096 216.446 160.028 216.446 161.091C216.446 161.772 216.66 162.37 217.077 162.92C217.506 163.481 218.162 163.946 219.067 164.305C219.591 164.496 221.117 164.938 223.655 165.631C227.337 166.611 229.899 167.424 231.353 168.046C232.807 168.679 233.951 169.586 234.773 170.781C235.595 171.976 236.013 173.458 236.013 175.238C236.013 176.971 235.511 178.608 234.499 180.149C233.486 181.679 232.032 182.873 230.125 183.709C228.219 184.546 226.062 184.964 223.655 184.964C219.675 184.964 216.636 184.139 214.551 182.478C212.478 180.842 211.143 178.38 210.559 175.119L215.694 174.306C215.981 176.373 216.791 177.951 218.102 179.05C219.425 180.149 221.26 180.699 223.631 180.699C226.014 180.699 227.79 180.208 228.945 179.24C230.101 178.261 230.673 177.126 230.674 175.812C230.674 174.641 230.161 173.709 229.148 173.028C228.433 172.562 226.669 171.976 223.833 171.259C220.021 170.291 217.376 169.455 215.91 168.75C214.432 168.045 213.323 167.065 212.561 165.823C211.798 164.58 211.417 163.206 211.417 161.7C211.417 160.327 211.727 159.06 212.358 157.889C212.99 156.718 213.837 155.75 214.909 154.973C215.719 154.376 216.815 153.873 218.209 153.455C219.603 153.037 221.106 152.835 222.702 152.835ZM363.863 153.564H369.094V157.614H363.863V175.596C363.863 177.078 363.958 178.034 364.137 178.464C364.315 178.894 364.614 179.229 365.03 179.48C365.447 179.73 366.032 179.862 366.806 179.862C367.378 179.838 368.141 179.778 369.082 179.635L369.833 184.236C368.367 184.546 367.057 184.701 365.901 184.701C364.018 184.701 362.553 184.402 361.516 183.805C360.48 183.208 359.741 182.419 359.324 181.452C358.895 180.472 358.692 178.428 358.692 175.298V157.614H354.878V153.564H358.692V145.952L363.863 142.822V153.564ZM15.8844 141.854C19.1137 141.854 21.7118 142.284 23.6661 143.144C25.6202 144.004 27.1452 145.319 28.2534 147.111C29.3615 148.891 29.9093 150.768 29.9093 152.715C29.9092 154.531 29.4215 156.241 28.4326 157.841C27.4435 159.442 25.9652 160.733 23.9873 161.725C26.5492 162.478 28.5157 163.756 29.886 165.572C31.2562 167.388 31.9469 169.527 31.9469 172C31.9469 173.983 31.53 175.835 30.696 177.544C29.8619 179.252 28.8255 180.567 27.5982 181.499C26.3709 182.431 24.8209 183.124 22.962 183.602C21.1032 184.08 18.8274 184.307 16.1346 184.307H0V141.854H15.8844ZM278.591 141.854C281.403 141.854 283.548 141.986 285.025 142.26C287.11 142.607 288.851 143.264 290.257 144.244C291.663 145.224 292.795 146.586 293.653 148.342C294.511 150.098 294.94 152.034 294.94 154.137C294.94 157.745 293.796 160.804 291.508 163.301C289.22 165.798 285.073 167.054 279.091 167.054H268.235V184.307H262.623V141.854H278.591ZM345.762 152.859C347.514 152.859 349.29 153.42 351.101 154.543L349.314 159.383C348.039 158.63 346.775 158.248 345.5 158.248C344.368 158.248 343.343 158.593 342.437 159.274C341.532 159.955 340.888 160.912 340.507 162.131C339.935 163.983 339.637 166.014 339.637 168.212V184.307H334.441V153.551H339.124V158.211C340.316 156.037 341.425 154.591 342.426 153.898C343.438 153.205 344.547 152.859 345.762 152.859ZM451.186 152.859C452.937 152.859 454.713 153.42 456.524 154.543L454.736 159.383C453.461 158.63 452.199 158.248 450.924 158.248C449.792 158.248 448.767 158.593 447.861 159.274C446.956 159.955 446.312 160.912 445.931 162.131C445.359 163.983 445.06 166.014 445.06 168.212V184.307H439.877V153.551H444.548V158.211C445.74 156.037 446.849 154.591 447.849 153.898C448.862 153.205 449.971 152.859 451.186 152.859ZM109.403 184.295H104.207V153.551H109.403V184.295ZM131.734 152.859C133.581 152.859 135.284 153.194 136.833 153.863C138.382 154.532 139.538 155.403 140.313 156.479C141.087 157.554 141.624 158.845 141.934 160.327C142.124 161.295 142.22 162.979 142.22 165.392V184.295H137.024V165.595C137.024 163.469 136.822 161.892 136.417 160.829C136.011 159.777 135.297 158.94 134.26 158.307C133.236 157.686 132.02 157.363 130.638 157.363C128.421 157.363 126.514 158.068 124.905 159.477C123.297 160.887 122.499 163.565 122.499 167.496V184.284H117.303V153.551H121.974V157.924C124.226 154.543 127.48 152.859 131.734 152.859ZM388.601 152.859C390.448 152.859 392.151 153.193 393.7 153.863C395.249 154.532 396.405 155.403 397.18 156.479C397.954 157.554 398.491 158.845 398.801 160.327C398.991 161.295 399.087 162.979 399.087 165.392V184.295H393.891V165.595C393.891 163.469 393.689 161.892 393.284 160.829C392.879 159.777 392.164 158.94 391.127 158.307C390.103 157.686 388.887 157.363 387.505 157.363C385.289 157.363 383.381 158.068 381.772 159.477C380.164 160.887 379.366 163.565 379.366 167.496V184.284H374.17V153.551H378.841V157.924C381.093 154.543 384.347 152.859 388.601 152.859ZM321.643 168.869C319.76 169.646 316.924 170.304 313.159 170.841C311.026 171.152 309.513 171.499 308.631 171.881C307.749 172.263 307.057 172.837 306.58 173.578C306.104 174.318 305.854 175.144 305.854 176.051C305.854 177.437 306.379 178.596 307.427 179.527C308.476 180.447 310.013 180.914 312.038 180.914C314.04 180.914 315.816 180.472 317.377 179.6C318.938 178.728 320.082 177.52 320.809 175.991C321.369 174.82 321.643 173.075 321.643 170.782V168.869ZM5.58923 179.288H16.1346C17.9458 179.288 19.2093 179.217 19.9481 179.085C21.2348 178.858 22.3195 178.464 23.1773 177.927C24.047 177.389 24.7504 176.6 25.3104 175.573C25.8704 174.545 26.1447 173.35 26.1448 172C26.1447 170.423 25.7389 169.037 24.9287 167.878C24.1184 166.707 22.9978 165.895 21.5679 165.417C20.1381 164.939 18.0651 164.712 15.3724 164.712H5.58923V179.288ZM162.848 157.148C160.464 157.148 158.45 157.949 156.829 159.55C155.197 161.151 154.291 163.29 154.125 165.978H171.248C171.022 163.397 170.366 161.449 169.282 160.159C167.625 158.152 165.481 157.148 162.848 157.148ZM419.703 157.148C417.32 157.148 415.306 157.949 413.686 159.55C412.053 161.151 411.147 163.29 410.98 165.978H428.104C427.877 163.397 427.222 161.449 426.137 160.159C424.481 158.152 422.336 157.148 419.703 157.148ZM268.199 162.035H279.162C282.785 162.035 285.347 161.366 286.872 160.004C288.397 158.654 289.148 156.754 289.148 154.305C289.148 152.525 288.695 151.007 287.802 149.74C286.908 148.474 285.728 147.638 284.263 147.231C283.322 146.98 281.581 146.849 279.031 146.849H268.199V162.035ZM5.60087 159.693H14.7522C17.2307 159.693 19.0187 159.526 20.0912 159.203C21.5087 158.773 22.5927 158.068 23.3077 157.089C24.0345 156.109 24.3922 154.866 24.3922 153.384C24.3922 151.974 24.0589 150.731 23.3798 149.668C22.7006 148.593 21.7472 147.864 20.4962 147.469C19.245 147.075 17.0996 146.872 14.0609 146.872H5.60087V159.693ZM109.403 147.852H104.207V141.854H109.403V147.852ZM102.809 0C124.732 0 142.78 27.9769 142.78 61.2937C142.78 81.6157 134.06 94.346 118.378 94.346C104.729 94.3459 97.1889 86.6531 83.6651 63.9599L76.7213 52.2494C75.0737 49.4651 73.5052 46.8687 72.0165 44.4618C67.7761 51.9906 61.6037 62.9168 61.6037 62.9168C46.7941 88.8738 38.4641 94.3459 26.8849 94.346C10.7954 94.346 1.19162 81.7853 1.19162 61.8783C1.19168 30.0648 18.8434 0 41.8768 0C53.1737 0.00010588 62.6144 5.49072 73.9052 19.9065C82.1222 8.76778 91.1986 0.000261454 102.809 0ZM433.073 24.3627C437.303 24.291 441.498 25.2 445.323 27.0162C448.886 28.7247 451.984 31.2812 454.331 34.4712V25.9042H468V92.745H454.32V83.4009C451.96 86.842 448.779 89.6147 445.061 91.4907C441.093 93.4382 436.72 94.4179 432.299 94.3343C426.77 94.4418 421.323 92.864 416.7 89.8291C412.076 86.7345 408.383 82.4452 405.999 77.4032C403.318 71.7636 401.983 65.5742 402.102 59.3252C401.971 53.0523 403.33 46.8506 406.07 41.2109C408.525 36.1686 412.303 31.8912 417.01 28.8563C421.813 25.8214 427.401 24.2553 433.073 24.3627ZM313.195 24.3032C324.849 23.8372 335.586 30.6598 340.126 41.4373C342.724 47.4594 343.986 53.9719 343.831 60.5317V64.4862H294.868C295.499 69.4329 297.847 73.9982 301.481 77.3916C305.163 80.5937 309.918 82.2778 314.791 82.0987C318.581 82.1823 322.359 81.525 325.898 80.1629C329.151 78.7888 332.118 76.8174 334.644 74.3321L342.294 83.7591C334.692 90.7729 324.635 94.5368 314.279 94.262C308.119 94.3934 302.029 92.864 296.655 89.8291C291.639 86.9017 287.54 82.6363 284.811 77.5106C281.903 71.9426 280.449 65.7292 280.568 59.4442C280.437 53.1117 281.855 46.8508 284.703 41.1993C287.324 36.0733 291.317 31.7708 296.239 28.7956C301.362 25.737 307.237 24.1838 313.195 24.3032ZM375.266 25.917H395.428V37.7699H375.266V67.772C375.266 72.7544 376.112 76.3155 377.816 78.4663C379.508 80.6169 382.428 81.6802 386.562 81.6564C388.123 81.6684 389.673 81.5973 391.234 81.4301C392.521 81.2986 393.915 81.0835 395.44 80.8326V92.542C393.7 93.0558 391.925 93.4376 390.125 93.7124C388.064 94.011 385.979 94.1665 383.894 94.1546C368.868 94.1546 361.36 85.9223 361.372 69.4453L361.36 37.7571H348.061V25.917H361.36V6.30918H375.266V25.917ZM220.39 57.6041L250.454 3.05949H267.769V92.745H253.326V23.9812L226.956 71.548H213.454L187.048 23.9812V92.745H172.63V3.05949H190.313L220.39 57.6041ZM435.861 37.0523C430.463 36.8134 425.233 39.0126 421.622 43.0511C418.107 47.0657 416.331 52.478 416.319 59.3123C416.307 66.1469 418.011 71.584 421.443 75.6226C424.887 79.6612 429.999 81.8954 435.301 81.6564C439.389 81.6923 443.392 80.4972 446.788 78.227C450.101 76.0883 452.651 72.9458 454.069 69.2656L454.058 49.3357C452.687 45.6795 450.221 42.5367 447.003 40.3381C443.715 38.1157 439.829 36.9686 435.861 37.0523ZM41.6824 15.4223C27.9891 15.4223 16.5036 39.0403 16.5035 62.1361C16.5035 72.9356 20.5937 78.9925 27.4749 78.9925C34.1549 78.9923 38.3075 74.7593 50.3066 55.8911C50.3066 55.8911 55.7703 47.1982 64.7841 33.3358C55.2937 19.7126 49.0966 15.4225 41.6824 15.4223ZM101.837 12.1586C94.492 12.1586 88.3253 17.9316 80.8419 29.5109C83.0708 32.8358 85.2294 36.2084 87.3156 39.6252L95.6209 53.5131C108.605 74.4579 111.868 78.9867 118.705 78.9867C125.837 78.9864 129.281 72.8664 129.281 62.3252C129.281 34.6755 117.08 12.1587 101.837 12.1586ZM324.826 41.1514C321.668 37.9852 317.33 36.2997 312.862 36.5027C308.405 36.3832 304.08 38.0921 300.898 41.2343C297.538 44.7112 295.393 49.1802 294.797 53.9833H329.997C329.866 49.2161 328.043 44.6519 324.838 41.1153L324.826 41.1514Z" fill="white"/>
</svg>
